<?xml version="1.0" encoding="utf-8"?>
<svg width="48px" height="48px" viewBox="0 0 48 48" fill="none" xmlns="http://www.w3.org/2000/svg">
  <path fill-rule="evenodd" clip-rule="evenodd" d="M19.5246 3C16.2289 3 13.5574 5.58679 13.5574 8.77778V12.7778H23.8853V13.8889H8.96721C5.67155 13.8889 3 16.4757 3 19.6667V28.3333C3 31.5243 5.67155 34.1111 8.96721 34.1111H12.4098V29.2222C12.4098 26.0312 15.0813 23.4444 18.377 23.4444H29.3934C32.182 23.4444 34.4426 21.2555 34.4426 18.5556V8.77778C34.4426 5.58679 31.7711 3 28.4754 3H19.5246ZM17.976 10.1111C19.2883 10.1111 20.2132 9.21567 20.2132 8.11111C20.2132 7.00655 19.2883 6.11111 17.976 6.11111C16.6638 6.11111 15.7388 7.00655 15.7388 8.11111C15.7388 9.21567 16.6638 10.1111 17.976 10.1111Z" fill="url(#paint0_linear)"/>
  <path fill-rule="evenodd" clip-rule="evenodd" d="M28.4751 45C31.7708 45 34.4423 42.4132 34.4423 39.2222V35.2222H24.1146V34.1111H39.0326C42.3283 34.1111 44.9998 31.5243 44.9998 28.3333V19.6667C44.9998 16.4757 42.3283 13.8889 39.0326 13.8889H35.59V18.7778C35.59 21.9688 32.9184 24.5556 29.6228 24.5556H18.6063C15.8177 24.5556 13.5571 26.7445 13.5571 29.4444V39.2222C13.5571 42.4132 16.2286 45 19.5243 45H28.4751ZM29.9762 37.8889C28.6639 37.8889 27.739 38.7843 27.739 39.8889C27.739 40.9935 28.6639 41.8889 29.9762 41.8889C31.2884 41.8889 32.2133 40.9935 32.2133 39.8889C32.2133 38.7843 31.2884 37.8889 29.9762 37.8889Z" fill="url(#paint1_linear)"/>
  <defs>
    <linearGradient id="paint0_linear" x1="18.7214" y1="3" x2="18.7214" y2="34.1111" gradientUnits="userSpaceOnUse">
      <stop stop-color="#327EBD"/>
      <stop offset="1" stop-color="#1565A7"/>
    </linearGradient>
    <linearGradient id="paint1_linear" x1="29.2785" y1="13.8889" x2="29.2785" y2="45" gradientUnits="userSpaceOnUse">
      <stop stop-color="#FFDA4B"/>
      <stop offset="1" stop-color="#F9C600"/>
    </linearGradient>
  </defs>
</svg>
